<svg xmlns="http://www.w3.org/2000/svg" viewBox="0 0 110.68 110.7"><defs><style>.cls-1{fill:#ff2600;}.cls-2{fill:#ff3b19;}.cls-3{fill:#ff5132;}.cls-4{fill:#ff664c;}.cls-5{fill:#ff7c65;}.cls-6{fill:#ff917e;}.cls-7{fill:#ffa797;}.cls-8{fill:#ffbcb1;}.cls-9{fill:#ffd2ca;}.cls-10{fill:#ffe7e3;}.cls-11{fill:#ff5700;}.cls-12{fill:#ff6819;}.cls-13{fill:#ff7832;}.cls-14{fill:#ff894c;}.cls-15{fill:#ff9965;}.cls-16{fill:#ffaa7e;}.cls-17{fill:#ffba97;}.cls-18{fill:#ffcbb1;}.cls-19{fill:#ffdbca;}.cls-20{fill:#ffece3;}.cls-21{fill:#ff3b00;}.cls-22{fill:#ff4e19;}.cls-23{fill:#ff6232;}.cls-24{fill:#ff754c;}.cls-25{fill:#ff8865;}.cls-26{fill:#ff9c7e;}.cls-27{fill:#ffaf97;}.cls-28{fill:#ffc2b1;}.cls-29{fill:#ffd6ca;}.cls-30{fill:#ffe9e3;}.cls-31{fill:#ff7900;}.cls-32{fill:#ff8619;}.cls-33{fill:#ff9332;}.cls-34{fill:#ffa14c;}.cls-35{fill:#ffae65;}.cls-36{fill:#ffbb7e;}.cls-37{fill:#ffc897;}.cls-38{fill:#ffd6b1;}.cls-39{fill:#ffe3ca;}.cls-40{fill:#fff0e3;}.cls-41{fill:#ff8700;}.cls-42{fill:#ff9319;}.cls-43{fill:#ff9f32;}.cls-44{fill:#ffab4c;}.cls-45{fill:#ffb765;}.cls-46{fill:#ffc27e;}.cls-47{fill:#ffce97;}.cls-48{fill:#ffdab1;}.cls-49{fill:#ffe6ca;}.cls-50{fill:#fff2e3;}.cls-51{fill:#ff9300;}.cls-52{fill:#ff9e19;}.cls-53{fill:#ffa832;}.cls-54{fill:#ffb34c;}.cls-55{fill:#ffbe65;}.cls-56{fill:#ffc87e;}.cls-57{fill:#ffd397;}.cls-58{fill:#ffdeb1;}.cls-59{fill:#ffe8ca;}.cls-60{fill:#fff3e3;}.cls-61{fill:#ffb200;}.cls-62{fill:#ffba19;}.cls-63{fill:#ffc132;}.cls-64{fill:#ffc94c;}.cls-65{fill:#ffd065;}.cls-66{fill:#ffd87e;}.cls-67{fill:#ffdf97;}.cls-68{fill:#ffe7b1;}.cls-69{fill:#ffeeca;}.cls-70{fill:#fff6e3;}.cls-71{fill:#ffd000;}.cls-72{fill:#ffd519;}.cls-73{fill:#ffd932;}.cls-74{fill:#ffde4c;}.cls-75{fill:#ffe365;}.cls-76{fill:#ffe77e;}.cls-77{fill:#ffec97;}.cls-78{fill:#fff1b1;}.cls-79{fill:#fff5ca;}.cls-80{fill:#fffae3;}.cls-81{fill:#ffdf00;}.cls-82{fill:#ffe219;}.cls-83{fill:#ffe532;}.cls-84{fill:#ffe84c;}.cls-85{fill:#ffeb65;}.cls-86{fill:#ffef7e;}.cls-87{fill:#fff297;}.cls-88{fill:#fff5b1;}.cls-89{fill:#fff8ca;}.cls-90{fill:#fffbe3;}.cls-91{fill:#ffed00;}.cls-92{fill:#ffef19;}.cls-93{fill:#fff132;}.cls-94{fill:#fff24c;}.cls-95{fill:#fff465;}.cls-96{fill:#fff67e;}.cls-97{fill:#fff897;}.cls-98{fill:#fff9b1;}.cls-99{fill:#fffbca;}.cls-100{fill:#fffde3;}.cls-101{fill:#dced00;}.cls-102{fill:#dfef19;}.cls-103{fill:#e3f132;}.cls-104{fill:#e6f24c;}.cls-105{fill:#eaf465;}.cls-106{fill:#edf67e;}.cls-107{fill:#f1f897;}.cls-108{fill:#f4f9b1;}.cls-109{fill:#f8fbca;}.cls-110{fill:#fbfde3;}.cls-111{fill:#badf00;}.cls-112{fill:#c1e219;}.cls-113{fill:#c8e532;}.cls-114{fill:#cee84c;}.cls-115{fill:#d5eb65;}.cls-116{fill:#dcef7e;}.cls-117{fill:#e3f297;}.cls-118{fill:#e9f5b1;}.cls-119{fill:#f0f8ca;}.cls-120{fill:#f7fbe3;}.cls-121{fill:#70c700;}.cls-122{fill:#7ecd19;}.cls-123{fill:#8cd232;}.cls-124{fill:#9ad84c;}.cls-125{fill:#a8dd65;}.cls-126{fill:#b7e37e;}.cls-127{fill:#c5e897;}.cls-128{fill:#d3eeb1;}.cls-129{fill:#e1f3ca;}.cls-130{fill:#eff9e3;}.cls-131{fill:#3bbe00;}.cls-132{fill:#4ec419;}.cls-133{fill:#62cb32;}.cls-134{fill:#75d14c;}.cls-135{fill:#88d865;}.cls-136{fill:#9cde7e;}.cls-137{fill:#afe597;}.cls-138{fill:#c2ebb1;}.cls-139{fill:#d6f2ca;}.cls-140{fill:#e9f8e3;}.cls-141{fill:#00b600;}.cls-142{fill:#19bd19;}.cls-143{fill:#32c432;}.cls-144{fill:#4ccc4c;}.cls-145{fill:#65d365;}.cls-146{fill:#7eda7e;}.cls-147{fill:#97e197;}.cls-148{fill:#b1e9b1;}.cls-149{fill:#caf0ca;}.cls-150{fill:#e3f7e3;}.cls-151{fill:#00bd4f;}.cls-152{fill:#19c460;}.cls-153{fill:#32ca72;}.cls-154{fill:#4cd183;}.cls-155{fill:#65d794;}.cls-156{fill:#7edea6;}.cls-157{fill:#97e4b7;}.cls-158{fill:#b1ebc8;}.cls-159{fill:#caf1da;}.cls-160{fill:#e3f8eb;}.cls-161{fill:#00c6a0;}.cls-162{fill:#19cca9;}.cls-163{fill:#32d1b3;}.cls-164{fill:#4cd7bc;}.cls-165{fill:#65ddc5;}.cls-166{fill:#7ee2cf;}.cls-167{fill:#97e8d8;}.cls-168{fill:#b1eee1;}.cls-169{fill:#caf3eb;}.cls-170{fill:#e3f9f4;}.cls-171{fill:#00afcf;}.cls-172{fill:#19b7d4;}.cls-173{fill:#32bfd9;}.cls-174{fill:#4cc7dd;}.cls-175{fill:#65cfe2;}.cls-176{fill:#7ed6e7;}.cls-177{fill:#97deec;}.cls-178{fill:#b1e6f0;}.cls-179{fill:#caeef5;}.cls-180{fill:#e3f6fa;}.cls-181{fill:#009bcc;}.cls-182{fill:#19a5d1;}.cls-183{fill:#32afd6;}.cls-184{fill:#4cb9db;}.cls-185{fill:#65c3e0;}.cls-186{fill:#7ecce5;}.cls-187{fill:#97d6ea;}.cls-188{fill:#b1e0ef;}.cls-189{fill:#caeaf4;}.cls-190{fill:#e3f4f9;}.cls-191{fill:#0087c3;}.cls-192{fill:#1993c9;}.cls-193{fill:#329fcf;}.cls-194{fill:#4cabd5;}.cls-195{fill:#65b7db;}.cls-196{fill:#7ec2e0;}.cls-197{fill:#97cee6;}.cls-198{fill:#b1daec;}.cls-199{fill:#cae6f2;}.cls-200{fill:#e3f2f8;}.cls-201{fill:#0074bf;}.cls-202{fill:#1982c5;}.cls-203{fill:#3290cc;}.cls-204{fill:#4c9dd2;}.cls-205{fill:#65abd8;}.cls-206{fill:#7eb9df;}.cls-207{fill:#97c7e5;}.cls-208{fill:#b1d4eb;}.cls-209{fill:#cae2f2;}.cls-210{fill:#e3f0f8;}.cls-211{fill:#0040ba;}.cls-212{fill:#1953c1;}.cls-213{fill:#3266c8;}.cls-214{fill:#4c79ce;}.cls-215{fill:#658cd5;}.cls-216{fill:#7e9edc;}.cls-217{fill:#97b1e3;}.cls-218{fill:#b1c4e9;}.cls-219{fill:#cad7f0;}.cls-220{fill:#e3eaf7;}.cls-221{fill:#0229ba;}.cls-222{fill:#1b3ec1;}.cls-223{fill:#3453c8;}.cls-224{fill:#4d68ce;}.cls-225{fill:#667dd5;}.cls-226{fill:#7f93dc;}.cls-227{fill:#98a8e3;}.cls-228{fill:#b1bde9;}.cls-229{fill:#cad2f0;}.cls-230{fill:#e3e7f7;}.cls-231{fill:#4d22b3;}.cls-232{fill:#5f38bb;}.cls-233{fill:#704ec2;}.cls-234{fill:#8263ca;}.cls-235{fill:#9379d1;}.cls-236{fill:#a58fd9;}.cls-237{fill:#b6a5e0;}.cls-238{fill:#c8bae8;}.cls-239{fill:#d9d0ef;}.cls-240{fill:#ebe6f7;}.cls-241{fill:#7524af;}.cls-242{fill:#833ab7;}.cls-243{fill:#904fbf;}.cls-244{fill:#9e65c7;}.cls-245{fill:#ac7bcf;}.cls-246{fill:#b990d6;}.cls-247{fill:#c7a6de;}.cls-248{fill:#d5bce6;}.cls-249{fill:#e2d1ee;}.cls-250{fill:#f0e7f6;}.cls-251{fill:#a92bbc;}.cls-252{fill:#b140c3;}.cls-253{fill:#ba55c9;}.cls-254{fill:#c26ad0;}.cls-255{fill:#cb7fd7;}.cls-256{fill:#d393dd;}.cls-257{fill:#dca8e4;}.cls-258{fill:#e4bdeb;}.cls-259{fill:#edd2f1;}.cls-260{fill:#f5e7f8;}.cls-261{fill:#c82db3;}.cls-262{fill:#cd42bb;}.cls-263{fill:#d357c2;}.cls-264{fill:#d86bca;}.cls-265{fill:#de80d1;}.cls-266{fill:#e395d9;}.cls-267{fill:#e9aae0;}.cls-268{fill:#eebee8;}.cls-269{fill:#f4d3ef;}.cls-270{fill:#f9e8f7;}.cls-271{fill:#d2278d;}.cls-272{fill:#d63c98;}.cls-273{fill:#db52a3;}.cls-274{fill:#df67af;}.cls-275{fill:#e47cba;}.cls-276{fill:#e892c5;}.cls-277{fill:#eda7d0;}.cls-278{fill:#f1bcdc;}.cls-279{fill:#f6d2e7;}.cls-280{fill:#fae7f2;}.cls-281{fill:#e5276f;}.cls-282{fill:#e83c7d;}.cls-283{fill:#ea528b;}.cls-284{fill:#ed679a;}.cls-285{fill:#ef7ca8;}.cls-286{fill:#f292b6;}.cls-287{fill:#f4a7c4;}.cls-288{fill:#f7bcd3;}.cls-289{fill:#f9d2e1;}.cls-290{fill:#fce7ef;}.cls-291{fill:#f22540;}.cls-292{fill:#f33b53;}.cls-293{fill:#f55066;}.cls-294{fill:#f66679;}.cls-295{fill:#f77b8c;}.cls-296{fill:#f9919e;}.cls-297{fill:#faa6b1;}.cls-298{fill:#fbbcc4;}.cls-299{fill:#fdd1d7;}.cls-300{fill:#fee7ea;}</style></defs><title>Asset 2</title><g id="Layer_2" data-name="Layer 2"><g id="Layer_1-2" data-name="Layer 1"><path class="cls-1" d="M55.34,5.19V0a55.36,55.36,0,0,0-11.51,1.2l1.08,5.07A50.56,50.56,0,0,1,55.34,5.19Z"/><path class="cls-2" d="M55.34,10.38V5.19A50.56,50.56,0,0,0,44.91,6.28L46,11.35A45.08,45.08,0,0,1,55.34,10.38Z"/><path class="cls-3" d="M55.34,15.56V10.38a45.08,45.08,0,0,0-9.35,1l1.08,5.07A39.53,39.53,0,0,1,55.34,15.56Z"/><path class="cls-4" d="M55.34,20.74V15.56a39.53,39.53,0,0,0-8.27.86l1.07,5.07A34.9,34.9,0,0,1,55.34,20.74Z"/><path class="cls-5" d="M55.34,25.92V20.74a34.9,34.9,0,0,0-7.2.75l1.08,5.07A29.42,29.42,0,0,1,55.34,25.92Z"/><path class="cls-6" d="M55.34,31.1V25.92a29.42,29.42,0,0,0-6.12.64l1.08,5.07A23.94,23.94,0,0,1,55.34,31.1Z"/><path class="cls-7" d="M55.34,36.28V31.1a23.94,23.94,0,0,0-5,.53l1.08,5.07A19.14,19.14,0,0,1,55.34,36.28Z"/><path class="cls-8" d="M55.34,41.47V36.28a19.14,19.14,0,0,0-4,.42l1.08,5.07A13.66,13.66,0,0,1,55.34,41.47Z"/><path class="cls-9" d="M55.34,46.65V41.47a13.66,13.66,0,0,0-2.88.3l1.07,5.07A8.36,8.36,0,0,1,55.34,46.65Z"/><path class="cls-10" d="M54.61,51.91a3.55,3.55,0,0,1,.73-.08V46.65a8.36,8.36,0,0,0-1.81.19Z"/><path class="cls-11" d="M34.94,9.53,32.83,4.8a55.14,55.14,0,0,0-10,5.77l3.05,4.19A50.28,50.28,0,0,1,34.94,9.53Z"/><path class="cls-12" d="M37.05,14.26,34.94,9.53a50.28,50.28,0,0,0-9.08,5.23l3,4.2A45.65,45.65,0,0,1,37.05,14.26Z"/><path class="cls-13" d="M39.16,19l-2.11-4.74A45.65,45.65,0,0,0,28.9,19L32,23.15A39.91,39.91,0,0,1,39.16,19Z"/><path class="cls-14" d="M41.27,23.73,39.16,19A39.91,39.91,0,0,0,32,23.15l3,4.19A35.5,35.5,0,0,1,41.27,23.73Z"/><path class="cls-15" d="M43.37,28.47l-2.1-4.74A35.5,35.5,0,0,0,35,27.34l3,4.2A29.11,29.11,0,0,1,43.37,28.47Z"/><path class="cls-16" d="M45.48,33.2l-2.11-4.73A29.11,29.11,0,0,0,38,31.54l3.05,4.19A23.68,23.68,0,0,1,45.48,33.2Z"/><path class="cls-17" d="M47.59,37.93,45.48,33.2a23.68,23.68,0,0,0-4.39,2.53l3,4.19A20.23,20.23,0,0,1,47.59,37.93Z"/><path class="cls-18" d="M49.7,42.67l-2.11-4.74a20.23,20.23,0,0,0-3.46,2l3,4.2A13.55,13.55,0,0,1,49.7,42.67Z"/><path class="cls-19" d="M51.8,47.4l-2.1-4.73a13.55,13.55,0,0,0-2.52,1.45l3,4.19A8.69,8.69,0,0,1,51.8,47.4Z"/><path class="cls-20" d="M53.27,52.5a4.45,4.45,0,0,1,.64-.37L51.8,47.4a8.69,8.69,0,0,0-1.57.91Z"/><path class="cls-21" d="M44.91,6.29,43.84,1.22a55.6,55.6,0,0,0-11,3.57l2.11,4.73A49.89,49.89,0,0,1,44.91,6.29Z"/><path class="cls-22" d="M46,11.36,44.91,6.29a49.89,49.89,0,0,0-10,3.23l2.11,4.74A43.9,43.9,0,0,1,46,11.36Z"/><path class="cls-23" d="M47.07,16.43,46,11.36a43.9,43.9,0,0,0-8.94,2.9L39.15,19A39.86,39.86,0,0,1,47.07,16.43Z"/><path class="cls-24" d="M48.15,21.5l-1.08-5.07A39.86,39.86,0,0,0,39.15,19l2.11,4.73A34.68,34.68,0,0,1,48.15,21.5Z"/><path class="cls-25" d="M49.22,26.56,48.15,21.5a34.68,34.68,0,0,0-6.89,2.22l2.11,4.74A29.66,29.66,0,0,1,49.22,26.56Z"/><path class="cls-26" d="M50.3,31.63l-1.08-5.07a29.66,29.66,0,0,0-5.85,1.9l2.11,4.73A24.7,24.7,0,0,1,50.3,31.63Z"/><path class="cls-27" d="M51.38,36.7,50.3,31.63a24.7,24.7,0,0,0-4.82,1.56l2.11,4.74A18.88,18.88,0,0,1,51.38,36.7Z"/><path class="cls-28" d="M52.46,41.77,51.38,36.7a18.88,18.88,0,0,0-3.79,1.23l2.1,4.73A14.7,14.7,0,0,1,52.46,41.77Z"/><path class="cls-29" d="M53.53,46.84l-1.07-5.07a14.7,14.7,0,0,0-2.77.89L51.8,47.4A9.2,9.2,0,0,1,53.53,46.84Z"/><path class="cls-30" d="M53.91,52.13a4.07,4.07,0,0,1,.7-.22l-1.08-5.07a9.2,9.2,0,0,0-1.73.56Z"/><path class="cls-31" d="M25.86,14.77l-3-4.19a55.55,55.55,0,0,0-8.61,7.73l3.85,3.47A50.88,50.88,0,0,1,25.86,14.77Z"/><path class="cls-32" d="M28.91,19l-3.05-4.19a50.88,50.88,0,0,0-7.8,7l3.85,3.47A45.41,45.41,0,0,1,28.91,19Z"/><path class="cls-33" d="M32,23.16l-3-4.2a45.41,45.41,0,0,0-7,6.29l3.86,3.47A39.19,39.19,0,0,1,32,23.16Z"/><path class="cls-34" d="M35,27.35,32,23.16a39.19,39.19,0,0,0-6.18,5.56l3.85,3.47A34.18,34.18,0,0,1,35,27.35Z"/><path class="cls-35" d="M38,31.54l-3-4.19a34.18,34.18,0,0,0-5.38,4.84l3.85,3.46A30,30,0,0,1,38,31.54Z"/><path class="cls-36" d="M41.09,35.73,38,31.54a30,30,0,0,0-4.57,4.11l3.85,3.47A24.54,24.54,0,0,1,41.09,35.73Z"/><path class="cls-37" d="M44.14,39.93l-3-4.2a24.54,24.54,0,0,0-3.77,3.39l3.85,3.47A18.92,18.92,0,0,1,44.14,39.93Z"/><path class="cls-38" d="M47.18,44.12l-3-4.19a18.92,18.92,0,0,0-3,2.66L45,46.06A13.84,13.84,0,0,1,47.18,44.12Z"/><path class="cls-39" d="M50.23,48.31l-3-4.19A13.84,13.84,0,0,0,45,46.06l3.86,3.47A8.75,8.75,0,0,1,50.23,48.31Z"/><path class="cls-40" d="M52.73,53a4.26,4.26,0,0,1,.54-.49l-3-4.19a8.75,8.75,0,0,0-1.35,1.22Z"/><path class="cls-41" d="M18.07,21.79l-3.85-3.47a55.6,55.6,0,0,0-6.81,9.35l4.49,2.6A50.35,50.35,0,0,1,18.07,21.79Z"/><path class="cls-42" d="M21.92,25.26l-3.85-3.47a50.35,50.35,0,0,0-6.17,8.48l4.49,2.59A44.48,44.48,0,0,1,21.92,25.26Z"/><path class="cls-43" d="M25.77,28.72l-3.85-3.46a44.48,44.48,0,0,0-5.53,7.6l4.48,2.59A40.24,40.24,0,0,1,25.77,28.72Z"/><path class="cls-44" d="M29.62,32.19l-3.85-3.47a40.24,40.24,0,0,0-4.9,6.73L25.36,38A34.91,34.91,0,0,1,29.62,32.19Z"/><path class="cls-45" d="M33.47,35.66l-3.85-3.47A34.91,34.91,0,0,0,25.36,38l4.49,2.59A30,30,0,0,1,33.47,35.66Z"/><path class="cls-46" d="M37.32,39.13l-3.85-3.47a30,30,0,0,0-3.62,5l4.49,2.59A24.26,24.26,0,0,1,37.32,39.13Z"/><path class="cls-47" d="M41.17,42.59l-3.85-3.46a24.26,24.26,0,0,0-3,4.09l4.49,2.6A19.08,19.08,0,0,1,41.17,42.59Z"/><path class="cls-48" d="M45,46.06l-3.86-3.47a19.08,19.08,0,0,0-2.34,3.23l4.49,2.59A13.15,13.15,0,0,1,45,46.06Z"/><path class="cls-49" d="M48.88,49.53,45,46.06a13.15,13.15,0,0,0-1.71,2.35L47.81,51A8.35,8.35,0,0,1,48.88,49.53Z"/><path class="cls-50" d="M52.29,53.59a4.19,4.19,0,0,1,.44-.6l-3.85-3.46A8.35,8.35,0,0,0,47.81,51Z"/><path class="cls-51" d="M11.91,30.27,7.42,27.68A56.06,56.06,0,0,0,2.7,38.25l4.93,1.6A50.63,50.63,0,0,1,11.91,30.27Z"/><path class="cls-52" d="M16.39,32.86l-4.48-2.59a50.63,50.63,0,0,0-4.28,9.58l4.93,1.6A45.79,45.79,0,0,1,16.39,32.86Z"/><path class="cls-53" d="M20.88,35.45l-4.49-2.59a45.79,45.79,0,0,0-3.83,8.59l4.93,1.6A40.35,40.35,0,0,1,20.88,35.45Z"/><path class="cls-54" d="M25.37,38l-4.49-2.59a40.35,40.35,0,0,0-3.39,7.6l4.93,1.6A35.57,35.57,0,0,1,25.37,38Z"/><path class="cls-55" d="M29.86,40.63,25.37,38a35.57,35.57,0,0,0-2.95,6.61l4.93,1.6A29.49,29.49,0,0,1,29.86,40.63Z"/><path class="cls-56" d="M34.34,43.23l-4.48-2.6a29.22,29.22,0,0,0-2.51,5.62l4.93,1.61A23.82,23.82,0,0,1,34.34,43.23Z"/><path class="cls-57" d="M38.83,45.82l-4.49-2.59a23.82,23.82,0,0,0-2.06,4.63l4.93,1.6A18.4,18.4,0,0,1,38.83,45.82Z"/><path class="cls-58" d="M43.32,48.41l-4.49-2.59a18.4,18.4,0,0,0-1.62,3.64l4.93,1.6A13.26,13.26,0,0,1,43.32,48.41Z"/><path class="cls-59" d="M47.81,51l-4.49-2.59a13.26,13.26,0,0,0-1.18,2.65l4.93,1.6A8.43,8.43,0,0,1,47.81,51Z"/><path class="cls-60" d="M52,54.26a3.06,3.06,0,0,1,.3-.67L47.81,51a8.43,8.43,0,0,0-.74,1.66Z"/><path class="cls-61" d="M7.64,39.85l-4.93-1.6A55.44,55.44,0,0,0,.3,49.56l5.15.55A50.54,50.54,0,0,1,7.64,39.85Z"/><path class="cls-62" d="M12.57,41.45l-4.93-1.6A50.54,50.54,0,0,0,5.45,50.11l5.16.54A44.84,44.84,0,0,1,12.57,41.45Z"/><path class="cls-63" d="M17.5,43.05l-4.93-1.6a44.84,44.84,0,0,0-2,9.2l5.15.54A40,40,0,0,1,17.5,43.05Z"/><path class="cls-64" d="M22.43,44.65l-4.93-1.6a40,40,0,0,0-1.74,8.14l5.15.54A35,35,0,0,1,22.43,44.65Z"/><path class="cls-65" d="M27.35,46.26l-4.92-1.61a35,35,0,0,0-1.52,7.08l5.16.54A29.86,29.86,0,0,1,27.35,46.26Z"/><path class="cls-66" d="M32.28,47.86l-4.93-1.6a29.86,29.86,0,0,0-1.28,6l5.15.54A24.87,24.87,0,0,1,32.28,47.86Z"/><path class="cls-67" d="M37.21,49.46l-4.93-1.6a24.87,24.87,0,0,0-1.06,5l5.16.55A19.26,19.26,0,0,1,37.21,49.46Z"/><path class="cls-68" d="M42.14,51.06l-4.93-1.6a19.26,19.26,0,0,0-.83,3.9l5.15.54A13.6,13.6,0,0,1,42.14,51.06Z"/><path class="cls-69" d="M47.07,52.66l-4.93-1.6a13.6,13.6,0,0,0-.61,2.84l5.16.54A8.71,8.71,0,0,1,47.07,52.66Z"/><path class="cls-70" d="M51.84,55a3.72,3.72,0,0,1,.16-.72l-4.93-1.6a8.71,8.71,0,0,0-.38,1.78Z"/><path class="cls-71" d="M5.46,50.11.31,49.56a55.24,55.24,0,0,0,0,11.57l5.15-.54A50.29,50.29,0,0,1,5.46,50.11Z"/><path class="cls-72" d="M10.61,50.65l-5.15-.54a51,51,0,0,0,0,10.48l5.16-.54A45.43,45.43,0,0,1,10.61,50.65Z"/><path class="cls-73" d="M15.77,51.19l-5.16-.54a45.43,45.43,0,0,0,0,9.4l5.15-.54A39.9,39.9,0,0,1,15.77,51.19Z"/><path class="cls-74" d="M20.92,51.73l-5.15-.54a39.9,39.9,0,0,0,0,8.32L20.91,59A35,35,0,0,1,20.92,51.73Z"/><path class="cls-75" d="M26.08,52.27l-5.16-.54a35,35,0,0,0,0,7.24l5.16-.54A29.5,29.5,0,0,1,26.08,52.27Z"/><path class="cls-76" d="M31.23,52.81l-5.15-.54a29.5,29.5,0,0,0,0,6.16l5.15-.55A24.55,24.55,0,0,1,31.23,52.81Z"/><path class="cls-77" d="M36.38,53.36l-5.15-.55a24.55,24.55,0,0,0,0,5.07l5.16-.54A18.91,18.91,0,0,1,36.38,53.36Z"/><path class="cls-78" d="M41.54,53.9l-5.16-.54a18.91,18.91,0,0,0,0,4l5.15-.54A13.39,13.39,0,0,1,41.54,53.9Z"/><path class="cls-79" d="M46.69,54.44l-5.15-.54a13.39,13.39,0,0,0,0,2.9l5.16-.54A8.52,8.52,0,0,1,46.69,54.44Z"/><path class="cls-80" d="M51.84,55.72a4.57,4.57,0,0,1,0-.74l-5.15-.54a8.52,8.52,0,0,0,0,1.82Z"/><path class="cls-81" d="M5.46,60.59l-5.15.54A55.25,55.25,0,0,0,2.7,72.45l4.93-1.6A50.67,50.67,0,0,1,5.46,60.59Z"/><path class="cls-82" d="M10.61,60.05l-5.15.54A50.67,50.67,0,0,0,7.63,70.85l4.93-1.6A45.43,45.43,0,0,1,10.61,60.05Z"/><path class="cls-83" d="M15.77,59.51l-5.16.54a45.43,45.43,0,0,0,2,9.2l4.93-1.6A39.64,39.64,0,0,1,15.77,59.51Z"/><path class="cls-84" d="M20.92,59l-5.15.54a39.64,39.64,0,0,0,1.72,8.14l4.93-1.6A35.07,35.07,0,0,1,20.92,59Z"/><path class="cls-85" d="M26.08,58.42,20.92,59a35.07,35.07,0,0,0,1.5,7.08l4.93-1.61A29,29,0,0,1,26.08,58.42Z"/><path class="cls-86" d="M31.23,57.88l-5.15.54a29,29,0,0,0,1.27,6l4.93-1.6A24.42,24.42,0,0,1,31.23,57.88Z"/><path class="cls-87" d="M36.38,57.34l-5.15.54a24.42,24.42,0,0,0,1.05,5l4.93-1.6A18.52,18.52,0,0,1,36.38,57.34Z"/><path class="cls-88" d="M41.54,56.8l-5.16.54a18.52,18.52,0,0,0,.83,3.9l4.93-1.6A13.4,13.4,0,0,1,41.54,56.8Z"/><path class="cls-89" d="M46.69,56.26l-5.15.54a13.4,13.4,0,0,0,.6,2.84L47.07,58A8.05,8.05,0,0,1,46.69,56.26Z"/><path class="cls-90" d="M52,56.44a3.42,3.42,0,0,1-.16-.72l-5.15.54A8.05,8.05,0,0,0,47.07,58Z"/><path class="cls-91" d="M7.64,70.85l-4.93,1.6A55.06,55.06,0,0,0,7.41,83l4.49-2.59A50.46,50.46,0,0,1,7.64,70.85Z"/><path class="cls-92" d="M12.57,69.25l-4.93,1.6a50.46,50.46,0,0,0,4.26,9.58l4.49-2.59A45,45,0,0,1,12.57,69.25Z"/><path class="cls-93" d="M17.5,67.65l-4.93,1.6a45,45,0,0,0,3.82,8.59l4.48-2.59A40,40,0,0,1,17.5,67.65Z"/><path class="cls-94" d="M22.43,66,17.5,67.65a40,40,0,0,0,3.37,7.6l4.49-2.59A34.93,34.93,0,0,1,22.43,66Z"/><path class="cls-95" d="M27.35,64.44,22.43,66a34.93,34.93,0,0,0,2.93,6.62l4.49-2.59A29.46,29.46,0,0,1,27.35,64.44Z"/><path class="cls-96" d="M32.28,62.84l-4.93,1.6a29.46,29.46,0,0,0,2.5,5.63l4.49-2.6A24.5,24.5,0,0,1,32.28,62.84Z"/><path class="cls-97" d="M37.21,61.24l-4.93,1.6a24.5,24.5,0,0,0,2.06,4.63l4.49-2.59A19.28,19.28,0,0,1,37.21,61.24Z"/><path class="cls-98" d="M42.14,59.64l-4.93,1.6a19.28,19.28,0,0,0,1.62,3.64l4.49-2.59A13.78,13.78,0,0,1,42.14,59.64Z"/><path class="cls-99" d="M47.07,58l-4.93,1.6a13.78,13.78,0,0,0,1.18,2.65l4.49-2.59A8.56,8.56,0,0,1,47.07,58Z"/><path class="cls-100" d="M52.29,57.11a3.31,3.31,0,0,1-.29-.67L47.07,58a8.56,8.56,0,0,0,.74,1.66Z"/><path class="cls-101" d="M11.91,80.43,7.42,83a54.92,54.92,0,0,0,6.79,9.36l3.85-3.46A50.18,50.18,0,0,1,11.91,80.43Z"/><path class="cls-102" d="M16.39,77.84l-4.48,2.59a50.18,50.18,0,0,0,6.15,8.49l3.85-3.47A46.13,46.13,0,0,1,16.39,77.84Z"/><path class="cls-103" d="M20.88,75.24l-4.49,2.6a46.13,46.13,0,0,0,5.52,7.61L25.77,82A39.66,39.66,0,0,1,20.88,75.24Z"/><path class="cls-104" d="M25.37,72.65l-4.49,2.59A39.66,39.66,0,0,0,25.77,82l3.85-3.47A34,34,0,0,1,25.37,72.65Z"/><path class="cls-105" d="M29.86,70.06l-4.49,2.59a34,34,0,0,0,4.25,5.86L33.47,75A29.36,29.36,0,0,1,29.86,70.06Z"/><path class="cls-106" d="M34.34,67.47l-4.48,2.59a29.36,29.36,0,0,0,3.61,5l3.85-3.46A24.83,24.83,0,0,1,34.34,67.47Z"/><path class="cls-107" d="M38.83,64.88l-4.49,2.59a24.83,24.83,0,0,0,3,4.11l3.85-3.47A19.19,19.19,0,0,1,38.83,64.88Z"/><path class="cls-108" d="M43.32,62.29l-4.49,2.59a19.19,19.19,0,0,0,2.34,3.23L45,64.64A14,14,0,0,1,43.32,62.29Z"/><path class="cls-109" d="M47.81,59.7l-4.49,2.59A14,14,0,0,0,45,64.64l3.86-3.47A8.4,8.4,0,0,1,47.81,59.7Z"/><path class="cls-110" d="M52.73,57.7a3.19,3.19,0,0,1-.43-.59L47.81,59.7a8.4,8.4,0,0,0,1.07,1.47Z"/><path class="cls-111" d="M18.07,88.91l-3.85,3.47a55.89,55.89,0,0,0,8.59,7.75l3.05-4.2A49.9,49.9,0,0,1,18.07,88.91Z"/><path class="cls-112" d="M21.92,85.44l-3.85,3.47a49.9,49.9,0,0,0,7.79,7l3-4.19A44.88,44.88,0,0,1,21.92,85.44Z"/><path class="cls-113" d="M25.77,82l-3.85,3.47a44.88,44.88,0,0,0,7,6.3L32,87.55A40,40,0,0,1,25.77,82Z"/><path class="cls-114" d="M29.62,78.51,25.77,82A40,40,0,0,0,32,87.55l3-4.2A34.87,34.87,0,0,1,29.62,78.51Z"/><path class="cls-115" d="M33.47,75l-3.85,3.47A34.87,34.87,0,0,0,35,83.35l3-4.19A30,30,0,0,1,33.47,75Z"/><path class="cls-116" d="M37.32,71.57,33.47,75A30,30,0,0,0,38,79.16L41.09,75A24.1,24.1,0,0,1,37.32,71.57Z"/><path class="cls-117" d="M41.17,68.11l-3.85,3.46A24.1,24.1,0,0,0,41.09,75l3-4.19A19.52,19.52,0,0,1,41.17,68.11Z"/><path class="cls-118" d="M45,64.64l-3.86,3.47a19.52,19.52,0,0,0,3,2.67l3-4.2A14,14,0,0,1,45,64.64Z"/><path class="cls-119" d="M48.88,61.17,45,64.64a14,14,0,0,0,2.15,1.94l3-4.19A8.61,8.61,0,0,1,48.88,61.17Z"/><path class="cls-120" d="M53.27,58.2a4.21,4.21,0,0,1-.54-.5l-3.85,3.47a8.61,8.61,0,0,0,1.35,1.22Z"/><path class="cls-121" d="M25.86,95.93l-3,4.19a54.82,54.82,0,0,0,10,5.79l2.11-4.73A50.29,50.29,0,0,1,25.86,95.93Z"/><path class="cls-122" d="M28.91,91.73l-3.05,4.2a50.29,50.29,0,0,0,9.08,5.25l2.11-4.74A44.18,44.18,0,0,1,28.91,91.73Z"/><path class="cls-123" d="M32,87.54l-3,4.19a44.18,44.18,0,0,0,8.14,4.71l2.1-4.73A39.9,39.9,0,0,1,32,87.54Z"/><path class="cls-124" d="M35,83.35,32,87.54a39.9,39.9,0,0,0,7.2,4.17L41.26,87A34.66,34.66,0,0,1,35,83.35Z"/><path class="cls-125" d="M38,79.16l-3,4.19A34.66,34.66,0,0,0,41.26,87l2.11-4.73A29.8,29.8,0,0,1,38,79.16Z"/><path class="cls-126" d="M41.09,75,38,79.16a29.8,29.8,0,0,0,5.33,3.08l2.11-4.74A23.68,23.68,0,0,1,41.09,75Z"/><path class="cls-127" d="M44.14,70.77l-3,4.19a23.68,23.68,0,0,0,4.39,2.54l2.11-4.73A18.73,18.73,0,0,1,44.14,70.77Z"/><path class="cls-128" d="M47.18,66.58l-3,4.19a18.73,18.73,0,0,0,3.45,2L49.69,68A13.82,13.82,0,0,1,47.18,66.58Z"/><path class="cls-129" d="M50.23,62.39l-3,4.19A13.82,13.82,0,0,0,49.69,68L51.8,63.3A8.88,8.88,0,0,1,50.23,62.39Z"/><path class="cls-130" d="M53.91,58.56a3.72,3.72,0,0,1-.64-.36l-3,4.19a8.88,8.88,0,0,0,1.57.91Z"/><path class="cls-131" d="M34.94,101.17l-2.11,4.73a55.21,55.21,0,0,0,11,3.59l1.08-5.07A50.9,50.9,0,0,1,34.94,101.17Z"/><path class="cls-132" d="M37.05,96.43l-2.11,4.74a50.9,50.9,0,0,0,10,3.25L46,99.35A45.11,45.11,0,0,1,37.05,96.43Z"/><path class="cls-133" d="M39.16,91.7l-2.11,4.73A45.11,45.11,0,0,0,46,99.35l1.08-5.07A40.15,40.15,0,0,1,39.16,91.7Z"/><path class="cls-134" d="M41.27,87,39.16,91.7a40.15,40.15,0,0,0,7.91,2.58l1.07-5.07A35.11,35.11,0,0,1,41.27,87Z"/><path class="cls-135" d="M43.37,82.23,41.27,87a35.11,35.11,0,0,0,6.87,2.24l1.08-5.07A29.18,29.18,0,0,1,43.37,82.23Z"/><path class="cls-136" d="M45.48,77.5l-2.11,4.73a29.18,29.18,0,0,0,5.85,1.91l1.08-5.07A24.66,24.66,0,0,1,45.48,77.5Z"/><path class="cls-137" d="M47.59,72.76,45.48,77.5a24.66,24.66,0,0,0,4.82,1.57L51.38,74A18.45,18.45,0,0,1,47.59,72.76Z"/><path class="cls-138" d="M49.7,68l-2.11,4.73A18.45,18.45,0,0,0,51.38,74l1.08-5.07A13.91,13.91,0,0,1,49.7,68Z"/><path class="cls-139" d="M51.8,63.3,49.7,68a13.91,13.91,0,0,0,2.76.9l1.07-5.07A8.72,8.72,0,0,1,51.8,63.3Z"/><path class="cls-140" d="M54.61,58.79a3.58,3.58,0,0,1-.7-.23L51.8,63.3a8.72,8.72,0,0,0,1.73.56Z"/><path class="cls-141" d="M44.91,104.41l-1.07,5.07a56,56,0,0,0,11.5,1.22v-5.19A50.38,50.38,0,0,1,44.91,104.41Z"/><path class="cls-142" d="M46,99.34l-1.08,5.07a50.38,50.38,0,0,0,10.43,1.1v-5.18A44.77,44.77,0,0,1,46,99.34Z"/><path class="cls-143" d="M47.07,94.27,46,99.34a44.77,44.77,0,0,0,9.35,1V95.15A39.69,39.69,0,0,1,47.07,94.27Z"/><path class="cls-144" d="M48.15,89.2l-1.08,5.07a39.69,39.69,0,0,0,8.27.88V90A34.75,34.75,0,0,1,48.15,89.2Z"/><path class="cls-145" d="M49.22,84.13,48.15,89.2a34.75,34.75,0,0,0,7.19.77V84.78A29.22,29.22,0,0,1,49.22,84.13Z"/><path class="cls-146" d="M50.3,79.07l-1.08,5.06a29.22,29.22,0,0,0,6.12.65V79.6A24.88,24.88,0,0,1,50.3,79.07Z"/><path class="cls-147" d="M51.38,74,50.3,79.07a24.88,24.88,0,0,0,5,.53V74.42A19.18,19.18,0,0,1,51.38,74Z"/><path class="cls-148" d="M52.46,68.93,51.38,74a19.18,19.18,0,0,0,4,.42V69.23A14.16,14.16,0,0,1,52.46,68.93Z"/><path class="cls-149" d="M53.53,63.86l-1.07,5.07a14.16,14.16,0,0,0,2.88.3V64.05A8.7,8.7,0,0,1,53.53,63.86Z"/><path class="cls-150" d="M55.34,58.87a3.71,3.71,0,0,1-.73-.08l-1.08,5.07a8.7,8.7,0,0,0,1.81.19Z"/><path class="cls-151" d="M55.34,105.5v5.19a55.9,55.9,0,0,0,11.51-1.2l-1.08-5.07A50.41,50.41,0,0,1,55.34,105.5Z"/><path class="cls-152" d="M55.34,100.32v5.18a50.41,50.41,0,0,0,10.43-1.08l-1.08-5.07A44.93,44.93,0,0,1,55.34,100.32Z"/><path class="cls-153" d="M55.34,95.14v5.18a44.93,44.93,0,0,0,9.35-1l-1.07-5.07A40.31,40.31,0,0,1,55.34,95.14Z"/><path class="cls-154" d="M55.34,90v5.18a40.31,40.31,0,0,0,8.28-.86l-1.08-5.07A34.82,34.82,0,0,1,55.34,90Z"/><path class="cls-155" d="M55.34,84.78V90a34.82,34.82,0,0,0,7.2-.75l-1.08-5.07A29.35,29.35,0,0,1,55.34,84.78Z"/><path class="cls-156" d="M55.34,79.59v5.19a29.35,29.35,0,0,0,6.12-.64l-1.08-5.07A24.55,24.55,0,0,1,55.34,79.59Z"/><path class="cls-157" d="M55.34,74.41v5.18a24.55,24.55,0,0,0,5-.52L59.31,74A19.23,19.23,0,0,1,55.34,74.41Z"/><path class="cls-158" d="M55.34,69.23v5.18a19.23,19.23,0,0,0,4-.41l-1.08-5.07A13.76,13.76,0,0,1,55.34,69.23Z"/><path class="cls-159" d="M55.34,64.05v5.18a13.76,13.76,0,0,0,2.89-.3l-1.08-5.07A9,9,0,0,1,55.34,64.05Z"/><path class="cls-160" d="M56.07,58.79a3.47,3.47,0,0,1-.73.08v5.18a9,9,0,0,0,1.81-.19Z"/><path class="cls-161" d="M65.77,104.41l1.08,5.07a55.3,55.3,0,0,0,11-3.57l-2.1-4.73A50.64,50.64,0,0,1,65.77,104.41Z"/><path class="cls-162" d="M64.69,99.34l1.08,5.07a51.31,51.31,0,0,0,10-3.23l-2.11-4.74A45.48,45.48,0,0,1,64.69,99.34Z"/><path class="cls-163" d="M63.62,94.27l1.07,5.07a45.48,45.48,0,0,0,9-2.9l-2.11-4.73A39.77,39.77,0,0,1,63.62,94.27Z"/><path class="cls-164" d="M62.54,89.2l1.08,5.07a39.77,39.77,0,0,0,7.91-2.56L69.42,87A34.17,34.17,0,0,1,62.54,89.2Z"/><path class="cls-165" d="M61.46,84.13l1.08,5.07A34.17,34.17,0,0,0,69.42,87l-2.11-4.73A29,29,0,0,1,61.46,84.13Z"/><path class="cls-166" d="M60.38,79.07l1.08,5.06a29,29,0,0,0,5.85-1.89l-2.1-4.74A24.16,24.16,0,0,1,60.38,79.07Z"/><path class="cls-167" d="M59.31,74l1.07,5.07a24.16,24.16,0,0,0,4.83-1.57L63.1,72.77A19.77,19.77,0,0,1,59.31,74Z"/><path class="cls-168" d="M58.23,68.93,59.31,74a19.77,19.77,0,0,0,3.79-1.23L61,68A13.93,13.93,0,0,1,58.23,68.93Z"/><path class="cls-169" d="M57.15,63.86l1.08,5.07A13.93,13.93,0,0,0,61,68L58.88,63.3A8.75,8.75,0,0,1,57.15,63.86Z"/><path class="cls-170" d="M56.77,58.56a3.19,3.19,0,0,1-.7.23l1.08,5.07a8.75,8.75,0,0,0,1.73-.56Z"/><path class="cls-171" d="M75.74,101.17l2.11,4.73a56.16,56.16,0,0,0,10-5.77l-3-4.2A50.75,50.75,0,0,1,75.74,101.17Z"/><path class="cls-172" d="M73.63,96.43l2.11,4.74a50.75,50.75,0,0,0,9.09-5.24l-3-4.19A44.67,44.67,0,0,1,73.63,96.43Z"/><path class="cls-173" d="M71.53,91.7l2.1,4.73a44.67,44.67,0,0,0,8.15-4.69l-3-4.19A39.91,39.91,0,0,1,71.53,91.7Z"/><path class="cls-174" d="M69.42,87l2.11,4.73a39.91,39.91,0,0,0,7.21-4.15l-3-4.2A34.84,34.84,0,0,1,69.42,87Z"/><path class="cls-175" d="M67.31,82.23,69.42,87a34.84,34.84,0,0,0,6.27-3.62l-3-4.19A28.78,28.78,0,0,1,67.31,82.23Z"/><path class="cls-176" d="M65.2,77.5l2.11,4.73a28.78,28.78,0,0,0,5.33-3.07L69.6,75A24.69,24.69,0,0,1,65.2,77.5Z"/><path class="cls-177" d="M63.1,72.76l2.1,4.74A24.69,24.69,0,0,0,69.6,75l-3-4.19A19.46,19.46,0,0,1,63.1,72.76Z"/><path class="cls-178" d="M61,68l2.11,4.73a19.46,19.46,0,0,0,3.45-2l-3-4.2A13.8,13.8,0,0,1,61,68Z"/><path class="cls-179" d="M58.88,63.3,61,68a13.8,13.8,0,0,0,2.51-1.45l-3-4.19A9.42,9.42,0,0,1,58.88,63.3Z"/><path class="cls-180" d="M57.41,58.2a3.31,3.31,0,0,1-.64.36l2.11,4.74a9.42,9.42,0,0,0,1.58-.91Z"/><path class="cls-181" d="M84.82,95.93l3.05,4.19a55.48,55.48,0,0,0,8.6-7.74l-3.85-3.46A50.47,50.47,0,0,1,84.82,95.93Z"/><path class="cls-182" d="M81.78,91.73l3,4.2a50.47,50.47,0,0,0,7.8-7l-3.85-3.47A44.77,44.77,0,0,1,81.78,91.73Z"/><path class="cls-183" d="M78.73,87.54l3,4.19a44.77,44.77,0,0,0,7-6.28L84.92,82A39.76,39.76,0,0,1,78.73,87.54Z"/><path class="cls-184" d="M75.69,83.35l3,4.19A39.76,39.76,0,0,0,84.92,82l-3.85-3.47A35.14,35.14,0,0,1,75.69,83.35Z"/><path class="cls-185" d="M72.64,79.16l3,4.19a35.14,35.14,0,0,0,5.38-4.84L77.22,75A30.15,30.15,0,0,1,72.64,79.16Z"/><path class="cls-186" d="M69.59,75l3,4.2A30.15,30.15,0,0,0,77.22,75l-3.86-3.46A24,24,0,0,1,69.59,75Z"/><path class="cls-187" d="M66.55,70.77l3,4.19a24,24,0,0,0,3.77-3.38l-3.85-3.47A18.89,18.89,0,0,1,66.55,70.77Z"/><path class="cls-188" d="M63.5,66.58l3,4.19a18.89,18.89,0,0,0,3-2.66l-3.85-3.47A13.84,13.84,0,0,1,63.5,66.58Z"/><path class="cls-189" d="M60.46,62.39l3,4.19a13.84,13.84,0,0,0,2.16-1.94l-3.85-3.47A9.3,9.3,0,0,1,60.46,62.39Z"/><path class="cls-190" d="M58,57.7a3.76,3.76,0,0,1-.55.5l3.05,4.19a9.3,9.3,0,0,0,1.35-1.22Z"/><path class="cls-191" d="M92.62,88.91l3.85,3.47A55.67,55.67,0,0,0,103.28,83l-4.49-2.59A50.91,50.91,0,0,1,92.62,88.91Z"/><path class="cls-192" d="M88.76,85.44l3.86,3.47a50.91,50.91,0,0,0,6.17-8.48L94.3,77.84A45.09,45.09,0,0,1,88.76,85.44Z"/><path class="cls-193" d="M84.91,82l3.85,3.47a45.09,45.09,0,0,0,5.54-7.6l-4.49-2.59A39.76,39.76,0,0,1,84.91,82Z"/><path class="cls-194" d="M81.06,78.51,84.91,82a39.76,39.76,0,0,0,4.9-6.72l-4.49-2.59A35.32,35.32,0,0,1,81.06,78.51Z"/><path class="cls-195" d="M77.21,75l3.85,3.47a35.32,35.32,0,0,0,4.26-5.85l-4.49-2.59A29.43,29.43,0,0,1,77.21,75Z"/><path class="cls-196" d="M73.36,71.57,77.21,75a29.43,29.43,0,0,0,3.62-5l-4.49-2.6A23.79,23.79,0,0,1,73.36,71.57Z"/><path class="cls-197" d="M69.51,68.11l3.85,3.46a23.79,23.79,0,0,0,3-4.1l-4.48-2.59A20,20,0,0,1,69.51,68.11Z"/><path class="cls-198" d="M65.66,64.64l3.85,3.47a20,20,0,0,0,2.35-3.23l-4.49-2.59A14.22,14.22,0,0,1,65.66,64.64Z"/><path class="cls-199" d="M61.81,61.17l3.85,3.47a14.22,14.22,0,0,0,1.71-2.35L62.88,59.7A8.89,8.89,0,0,1,61.81,61.17Z"/><path class="cls-200" d="M58.39,57.11a3.56,3.56,0,0,1-.43.59l3.85,3.47a8.89,8.89,0,0,0,1.07-1.47Z"/><path class="cls-201" d="M98.78,80.43,103.27,83A55.38,55.38,0,0,0,108,72.45l-4.93-1.6A50,50,0,0,1,98.78,80.43Z"/><path class="cls-202" d="M94.29,77.84l4.49,2.59a50,50,0,0,0,4.27-9.58l-4.93-1.6A45.15,45.15,0,0,1,94.29,77.84Z"/><path class="cls-203" d="M89.8,75.24l4.49,2.6a45.15,45.15,0,0,0,3.83-8.59l-4.93-1.6A39.37,39.37,0,0,1,89.8,75.24Z"/><path class="cls-204" d="M85.32,72.65l4.48,2.59a39.37,39.37,0,0,0,3.39-7.59l-4.93-1.6A34.51,34.51,0,0,1,85.32,72.65Z"/><path class="cls-205" d="M80.83,70.06l4.49,2.59a34.51,34.51,0,0,0,2.94-6.6l-4.92-1.61A29.56,29.56,0,0,1,80.83,70.06Z"/><path class="cls-206" d="M76.34,67.47l4.49,2.59a29.56,29.56,0,0,0,2.51-5.62l-4.93-1.6A25.06,25.06,0,0,1,76.34,67.47Z"/><path class="cls-207" d="M71.85,64.88l4.49,2.59a25.06,25.06,0,0,0,2.07-4.63l-4.93-1.6A19.62,19.62,0,0,1,71.85,64.88Z"/><path class="cls-208" d="M67.36,62.29l4.49,2.59a19.62,19.62,0,0,0,1.63-3.64l-4.93-1.6A14.18,14.18,0,0,1,67.36,62.29Z"/><path class="cls-209" d="M62.88,59.7l4.48,2.59a14.18,14.18,0,0,0,1.19-2.65L63.62,58A9.06,9.06,0,0,1,62.88,59.7Z"/><path class="cls-210" d="M58.69,56.44a4.43,4.43,0,0,1-.3.67l4.49,2.59A9.06,9.06,0,0,0,63.62,58Z"/><path class="cls-211" d="M103,70.85l4.93,1.6a55.42,55.42,0,0,0,2.42-11.32l-5.16-.54A49.87,49.87,0,0,1,103,70.85Z"/><path class="cls-212" d="M98.11,69.25l4.93,1.6a49.87,49.87,0,0,0,2.19-10.26l-5.15-.54A44.87,44.87,0,0,1,98.11,69.25Z"/><path class="cls-213" d="M93.19,67.65l4.92,1.6a44.87,44.87,0,0,0,2-9.2l-5.16-.54A40,40,0,0,1,93.19,67.65Z"/><path class="cls-214" d="M88.26,66l4.93,1.61a40,40,0,0,0,1.73-8.14L89.77,59A34.73,34.73,0,0,1,88.26,66Z"/><path class="cls-215" d="M83.33,64.44,88.26,66A34.73,34.73,0,0,0,89.77,59l-5.16-.54A29.18,29.18,0,0,1,83.33,64.44Z"/><path class="cls-216" d="M78.4,62.84l4.93,1.6a29.18,29.18,0,0,0,1.28-6l-5.15-.55A24.14,24.14,0,0,1,78.4,62.84Z"/><path class="cls-217" d="M73.47,61.24l4.93,1.6a24.14,24.14,0,0,0,1.06-5l-5.15-.54A19.28,19.28,0,0,1,73.47,61.24Z"/><path class="cls-218" d="M68.54,59.64l4.93,1.6a19.28,19.28,0,0,0,.84-3.9l-5.16-.54A13.6,13.6,0,0,1,68.54,59.64Z"/><path class="cls-219" d="M63.62,58l4.92,1.6a13.6,13.6,0,0,0,.61-2.84L64,56.26A9.43,9.43,0,0,1,63.62,58Z"/><path class="cls-220" d="M58.84,55.72a3.08,3.08,0,0,1-.15.72L63.62,58A9.43,9.43,0,0,0,64,56.26Z"/><path class="cls-221" d="M105.22,60.59l5.16.54a55.93,55.93,0,0,0,0-11.57l-5.16.55A49.62,49.62,0,0,1,105.22,60.59Z"/><path class="cls-222" d="M100.07,60.05l5.15.54a49.62,49.62,0,0,0,0-10.48l-5.15.54A45.44,45.44,0,0,1,100.07,60.05Z"/><path class="cls-223" d="M94.92,59.51l5.15.54a45.44,45.44,0,0,0,0-9.4l-5.16.54A39.89,39.89,0,0,1,94.92,59.51Z"/><path class="cls-224" d="M89.76,59l5.16.54a39.89,39.89,0,0,0,0-8.32l-5.15.54A34.36,34.36,0,0,1,89.76,59Z"/><path class="cls-225" d="M84.61,58.42l5.15.55a34.36,34.36,0,0,0,0-7.24l-5.16.54A29.4,29.4,0,0,1,84.61,58.42Z"/><path class="cls-226" d="M79.46,57.88l5.15.54a29.4,29.4,0,0,0,0-6.15l-5.15.54A24.54,24.54,0,0,1,79.46,57.88Z"/><path class="cls-227" d="M74.3,57.34l5.16.54a24.54,24.54,0,0,0,0-5.07l-5.15.55A19.61,19.61,0,0,1,74.3,57.34Z"/><path class="cls-228" d="M69.15,56.8l5.15.54a19.61,19.61,0,0,0,0-4l-5.16.54A14.05,14.05,0,0,1,69.15,56.8Z"/><path class="cls-229" d="M64,56.26l5.16.54a14.05,14.05,0,0,0,0-2.9L64,54.44A8.53,8.53,0,0,1,64,56.26Z"/><path class="cls-230" d="M58.84,55a3.05,3.05,0,0,1,0,.74l5.15.54a8.53,8.53,0,0,0,0-1.82Z"/><path class="cls-231" d="M105.22,50.11l5.16-.55A55.84,55.84,0,0,0,108,38.25l-4.93,1.6A50,50,0,0,1,105.22,50.11Z"/><path class="cls-232" d="M100.07,50.65l5.15-.54a50,50,0,0,0-2.17-10.26l-4.93,1.6A45.43,45.43,0,0,1,100.07,50.65Z"/><path class="cls-233" d="M94.92,51.19l5.15-.54a45.43,45.43,0,0,0-1.95-9.2l-4.93,1.6A40.32,40.32,0,0,1,94.92,51.19Z"/><path class="cls-234" d="M89.76,51.73l5.16-.54a40.32,40.32,0,0,0-1.73-8.14l-4.93,1.6A34.4,34.4,0,0,1,89.76,51.73Z"/><path class="cls-235" d="M84.61,52.27l5.15-.54a34.4,34.4,0,0,0-1.5-7.08l-4.92,1.6A29.81,29.81,0,0,1,84.61,52.27Z"/><path class="cls-236" d="M79.46,52.81l5.15-.54a29.81,29.81,0,0,0-1.27-6l-4.93,1.61A25.16,25.16,0,0,1,79.46,52.81Z"/><path class="cls-237" d="M74.3,53.36l5.16-.55a25.16,25.16,0,0,0-1-5l-4.93,1.6A19,19,0,0,1,74.3,53.36Z"/><path class="cls-238" d="M69.15,53.9l5.15-.54a19,19,0,0,0-.82-3.9l-4.93,1.6A14.46,14.46,0,0,1,69.15,53.9Z"/><path class="cls-239" d="M64,54.44l5.16-.54a14.46,14.46,0,0,0-.6-2.84l-4.93,1.6A8.65,8.65,0,0,1,64,54.44Z"/><path class="cls-240" d="M58.69,54.26a4.18,4.18,0,0,1,.15.72L64,54.44a8.65,8.65,0,0,0-.37-1.78Z"/><path class="cls-241" d="M103,39.85l4.93-1.6a56,56,0,0,0-4.69-10.58l-4.49,2.6A50.43,50.43,0,0,1,103,39.85Z"/><path class="cls-242" d="M98.11,41.45l4.93-1.6a50.43,50.43,0,0,0-4.25-9.58L94.3,32.86A44.93,44.93,0,0,1,98.11,41.45Z"/><path class="cls-243" d="M93.19,43.05l4.92-1.6a44.93,44.93,0,0,0-3.81-8.59l-4.49,2.59A40.09,40.09,0,0,1,93.19,43.05Z"/><path class="cls-244" d="M88.26,44.65l4.93-1.6a40.09,40.09,0,0,0-3.38-7.6L85.32,38A34.52,34.52,0,0,1,88.26,44.65Z"/><path class="cls-245" d="M83.33,46.26l4.93-1.61A34.52,34.52,0,0,0,85.32,38l-4.49,2.59A29.46,29.46,0,0,1,83.33,46.26Z"/><path class="cls-246" d="M78.4,47.86l4.93-1.6a29.46,29.46,0,0,0-2.5-5.63l-4.49,2.59A24,24,0,0,1,78.4,47.86Z"/><path class="cls-247" d="M73.47,49.46l4.93-1.6a24,24,0,0,0-2.06-4.64l-4.48,2.6A19,19,0,0,1,73.47,49.46Z"/><path class="cls-248" d="M68.54,51.06l4.93-1.6a19,19,0,0,0-1.61-3.64l-4.49,2.59A13.75,13.75,0,0,1,68.54,51.06Z"/><path class="cls-249" d="M63.62,52.66l4.92-1.6a13.75,13.75,0,0,0-1.17-2.65L62.88,51A8.91,8.91,0,0,1,63.62,52.66Z"/><path class="cls-250" d="M58.39,53.59a3.69,3.69,0,0,1,.3.67l4.93-1.6A8.91,8.91,0,0,0,62.88,51Z"/><path class="cls-251" d="M98.78,30.27l4.49-2.59a56,56,0,0,0-6.8-9.37l-3.85,3.47A50.38,50.38,0,0,1,98.78,30.27Z"/><path class="cls-252" d="M94.29,32.86l4.49-2.59a50.38,50.38,0,0,0-6.16-8.49l-3.85,3.47A44.75,44.75,0,0,1,94.29,32.86Z"/><path class="cls-253" d="M89.8,35.45l4.49-2.59a44.75,44.75,0,0,0-5.52-7.61l-3.85,3.47A40.49,40.49,0,0,1,89.8,35.45Z"/><path class="cls-254" d="M85.32,38l4.48-2.59a40.49,40.49,0,0,0-4.88-6.73l-3.85,3.47A35.47,35.47,0,0,1,85.32,38Z"/><path class="cls-255" d="M80.83,40.63,85.32,38a35.47,35.47,0,0,0-4.25-5.85l-3.85,3.46A30.34,30.34,0,0,1,80.83,40.63Z"/><path class="cls-256" d="M76.34,43.23l4.49-2.6a30.34,30.34,0,0,0-3.61-5l-3.86,3.47A23.73,23.73,0,0,1,76.34,43.23Z"/><path class="cls-257" d="M71.85,45.82l4.49-2.59a23.73,23.73,0,0,0-3-4.11l-3.85,3.47A18.65,18.65,0,0,1,71.85,45.82Z"/><path class="cls-258" d="M67.36,48.41l4.49-2.59a18.65,18.65,0,0,0-2.34-3.23l-3.85,3.47A13.43,13.43,0,0,1,67.36,48.41Z"/><path class="cls-259" d="M62.88,51l4.48-2.59a13.43,13.43,0,0,0-1.7-2.35l-3.85,3.47A8.4,8.4,0,0,1,62.88,51Z"/><path class="cls-260" d="M58,53a3.82,3.82,0,0,1,.43.6L62.88,51a8.4,8.4,0,0,0-1.07-1.47Z"/><path class="cls-261" d="M92.62,21.79l3.85-3.47a55.84,55.84,0,0,0-8.59-7.75l-3,4.19A50.94,50.94,0,0,1,92.62,21.79Z"/><path class="cls-262" d="M88.76,25.26l3.86-3.47a50.94,50.94,0,0,0-7.79-7l-3,4.2A44,44,0,0,1,88.76,25.26Z"/><path class="cls-263" d="M84.91,28.72l3.85-3.46a44,44,0,0,0-7-6.3l-3,4.19A40.36,40.36,0,0,1,84.91,28.72Z"/><path class="cls-264" d="M81.06,32.19l3.85-3.47a40.36,40.36,0,0,0-6.17-5.57l-3,4.19A35,35,0,0,1,81.06,32.19Z"/><path class="cls-265" d="M77.21,35.66l3.85-3.47a35,35,0,0,0-5.37-4.85l-3,4.2A29,29,0,0,1,77.21,35.66Z"/><path class="cls-266" d="M73.36,39.13l3.85-3.47a29,29,0,0,0-4.57-4.12l-3,4.19A24.49,24.49,0,0,1,73.36,39.13Z"/><path class="cls-267" d="M69.51,42.59l3.85-3.46a24.49,24.49,0,0,0-3.76-3.4l-3,4.19A19.06,19.06,0,0,1,69.51,42.59Z"/><path class="cls-268" d="M65.66,46.06l3.85-3.47a19.06,19.06,0,0,0-3-2.67l-3,4.2A13.58,13.58,0,0,1,65.66,46.06Z"/><path class="cls-269" d="M61.81,49.53l3.85-3.47a13.58,13.58,0,0,0-2.16-1.94l-3,4.19A9.08,9.08,0,0,1,61.81,49.53Z"/><path class="cls-270" d="M57.41,52.5A3.64,3.64,0,0,1,58,53l3.85-3.46a9.08,9.08,0,0,0-1.35-1.22Z"/><path class="cls-271" d="M84.82,14.77l3.05-4.19a54.89,54.89,0,0,0-10-5.79l-2.1,4.73A50.21,50.21,0,0,1,84.82,14.77Z"/><path class="cls-272" d="M81.78,19l3-4.19a50.21,50.21,0,0,0-9.07-5.25l-2.11,4.74A45.38,45.38,0,0,1,81.78,19Z"/><path class="cls-273" d="M78.73,23.16l3-4.2a45.38,45.38,0,0,0-8.14-4.7L71.53,19A39.56,39.56,0,0,1,78.73,23.16Z"/><path class="cls-274" d="M75.69,27.35l3-4.19A39.56,39.56,0,0,0,71.53,19l-2.11,4.73A35,35,0,0,1,75.69,27.35Z"/><path class="cls-275" d="M72.64,31.54l3-4.19a35,35,0,0,0-6.27-3.63l-2.11,4.74A29.45,29.45,0,0,1,72.64,31.54Z"/><path class="cls-276" d="M69.59,35.73l3-4.19a29.45,29.45,0,0,0-5.33-3.08l-2.1,4.73A25.15,25.15,0,0,1,69.59,35.73Z"/><path class="cls-277" d="M66.55,39.93l3-4.2a25.15,25.15,0,0,0-4.38-2.54L63.1,37.93A19.07,19.07,0,0,1,66.55,39.93Z"/><path class="cls-278" d="M63.5,44.12l3-4.19a19.07,19.07,0,0,0-3.45-2L61,42.66A14.13,14.13,0,0,1,63.5,44.12Z"/><path class="cls-279" d="M60.46,48.31l3-4.19A14.13,14.13,0,0,0,61,42.66L58.88,47.4A9,9,0,0,1,60.46,48.31Z"/><path class="cls-280" d="M56.77,52.13a4.09,4.09,0,0,1,.64.37l3.05-4.19a9,9,0,0,0-1.58-.91Z"/><path class="cls-281" d="M75.74,9.53,77.85,4.8a55,55,0,0,0-11-3.59L65.77,6.28A49.82,49.82,0,0,1,75.74,9.53Z"/><path class="cls-282" d="M73.63,14.26l2.11-4.73a50,50,0,0,0-10-3.25l-1.08,5.07A45.07,45.07,0,0,1,73.63,14.26Z"/><path class="cls-283" d="M71.53,19l2.1-4.74a45.07,45.07,0,0,0-8.94-2.91l-1.07,5.07A39.71,39.71,0,0,1,71.53,19Z"/><path class="cls-284" d="M69.42,23.73,71.53,19a39.71,39.71,0,0,0-7.91-2.58l-1.08,5.07A34.75,34.75,0,0,1,69.42,23.73Z"/><path class="cls-285" d="M67.31,28.47l2.11-4.74a34.75,34.75,0,0,0-6.88-2.24l-1.08,5.07A29,29,0,0,1,67.31,28.47Z"/><path class="cls-286" d="M65.2,33.2l2.11-4.73a29,29,0,0,0-5.85-1.91l-1.08,5.07A24.66,24.66,0,0,1,65.2,33.2Z"/><path class="cls-287" d="M63.1,37.93l2.1-4.73a24.66,24.66,0,0,0-4.82-1.57L59.31,36.7A19.47,19.47,0,0,1,63.1,37.93Z"/><path class="cls-288" d="M61,42.67l2.11-4.74a19.47,19.47,0,0,0-3.79-1.23l-1.08,5.07A13.68,13.68,0,0,1,61,42.67Z"/><path class="cls-289" d="M58.88,47.4,61,42.67a13.68,13.68,0,0,0-2.76-.9l-1.08,5.07A8.72,8.72,0,0,1,58.88,47.4Z"/><path class="cls-290" d="M56.07,51.91a3.55,3.55,0,0,1,.7.22l2.11-4.73a8.72,8.72,0,0,0-1.73-.56Z"/><path class="cls-291" d="M65.77,6.29l1.08-5.07A55.34,55.34,0,0,0,55.34,0V5.18A51.1,51.1,0,0,1,65.77,6.29Z"/><path class="cls-292" d="M64.69,11.36l1.08-5.07A51.1,51.1,0,0,0,55.34,5.18v5.19A44.63,44.63,0,0,1,64.69,11.36Z"/><path class="cls-293" d="M63.62,16.43l1.07-5.07a44.63,44.63,0,0,0-9.35-1v5.18A39.85,39.85,0,0,1,63.62,16.43Z"/><path class="cls-294" d="M62.54,21.5l1.08-5.07a39.85,39.85,0,0,0-8.28-.88v5.18A34.18,34.18,0,0,1,62.54,21.5Z"/><path class="cls-295" d="M61.46,26.56l1.08-5.06a34.18,34.18,0,0,0-7.2-.77v5.19A29.81,29.81,0,0,1,61.46,26.56Z"/><path class="cls-296" d="M60.38,31.63l1.08-5.07a29.81,29.81,0,0,0-6.12-.64V31.1A24.19,24.19,0,0,1,60.38,31.63Z"/><path class="cls-297" d="M59.31,36.7l1.07-5.07a24.19,24.19,0,0,0-5-.53v5.18A19.27,19.27,0,0,1,59.31,36.7Z"/><path class="cls-298" d="M58.23,41.77l1.08-5.07a19.27,19.27,0,0,0-4-.42v5.18A14.35,14.35,0,0,1,58.23,41.77Z"/><path class="cls-299" d="M57.15,46.84l1.08-5.07a14.35,14.35,0,0,0-2.89-.31v5.19A8.63,8.63,0,0,1,57.15,46.84Z"/><path class="cls-300" d="M55.34,51.83a3.63,3.63,0,0,1,.73.08l1.08-5.07a8.63,8.63,0,0,0-1.81-.19Z"/></g></g></svg>